<?xml version="1.0" encoding="UTF-8"?>
<svg id="Layer_1" data-name="Layer 1" xmlns="http://www.w3.org/2000/svg" viewBox="0 0 100 70">
  <polygon points="50.6 5.2 3.7 28.65 18.67 35.93 64.24 12.49 50.6 5.2"/>
  <polygon points="18.48 51.6 2.52 43.34 2.52 29.65 18.48 37.18 18.48 51.6"/>
  <polygon points="66.27 13.33 19.75 36.59 34.72 43.87 80.29 20.43 66.27 13.33" style="fill: #e6e6e6;"/>
  <polygon points="82.36 21.21 35.71 44.53 49.9 51.6 96.69 28.15 82.36 21.21"/>
  <polygon points="97.48 29.15 50.68 52.44 50.68 66.4 97.48 43.47 97.48 29.15"/>
  <polygon points="33.97 58.61 19.29 51.85 19.29 37.56 33.97 44.98 33.97 58.61" style="fill: #e6e6e6;"/>
  <polygon points="49.9 66.4 34.82 58.86 34.82 45.33 49.9 52.81 49.9 66.4"/>
</svg>