<?xml version="1.0" encoding="UTF-8"?>
<svg id="Layer_1" data-name="Layer 1" xmlns="http://www.w3.org/2000/svg" viewBox="0 0 100 100">
  <path d="M37.61,53.12v4.79h-5.31c-6.09,0-11.04,4.96-11.04,11.04s4.96,11.04,11.04,11.04,11.04-4.96,11.04-11.04v-5.31h13.34v5.31c0,6.09,4.96,11.04,11.04,11.04s11.04-4.96,11.04-11.04-4.96-11.04-11.04-11.04h-5.31v-14.05h5.31c6.09,0,11.04-4.96,11.04-11.04s-4.96-11.04-11.04-11.04-11.04,4.96-11.04,11.04v5.31h-13.34v-5.31c0-6.09-4.96-11.04-11.04-11.04s-11.04,4.96-11.04,11.04,4.96,11.04,11.04,11.04h5.31v9.26Zm0,15.82c0,2.93-2.38,5.31-5.31,5.31s-5.31-2.38-5.31-5.31,2.38-5.31,5.31-5.31h5.31v5.31Zm24.78-36.14c0-2.93,2.38-5.31,5.31-5.31s5.31,2.38,5.31,5.31-2.38,5.31-5.31,5.31h-5.31v-5.31Zm0,30.83h5.31c2.93,0,5.31,2.38,5.31,5.31s-2.38,5.31-5.31,5.31-5.31-2.38-5.31-5.31v-5.31Zm-19.05-10.51v-9.26h13.34v14.05h-13.34v-4.79Zm-11.04-15c-2.93,0-5.31-2.38-5.31-5.31s2.38-5.31,5.31-5.31,5.31,2.38,5.31,5.31v5.31h-5.31Z"/>
</svg>