<?xml version="1.0" encoding="UTF-8"?>
<svg id="Layer_1" data-name="Layer 1" xmlns="http://www.w3.org/2000/svg" viewBox="0 0 100 100">
  <polyline points="91.89 65.88 91.89 78.04 8.8 78.04 8.8 65.88" style="fill: none; fill-rule: evenodd; stroke: #000; stroke-linecap: round; stroke-linejoin: round; stroke-width: 7px;"/>
  <g>
    <path d="M8.97,46.1c1.27,.65,3.22,1.3,5.24,1.3,2.17,0,3.32-.9,3.32-2.26s-.99-2.05-3.5-2.95c-3.47-1.21-5.74-3.13-5.74-6.17,0-3.57,2.98-6.29,7.91-6.29,2.36,0,4.09,.5,5.33,1.05l-1.05,3.81c-.84-.4-2.33-.99-4.37-.99s-3.04,.93-3.04,2.02c0,1.33,1.18,1.92,3.88,2.95,3.69,1.36,5.43,3.29,5.43,6.23,0,3.5-2.7,6.48-8.43,6.48-2.39,0-4.74-.62-5.92-1.27l.96-3.91Z" style="stroke: #000; stroke-miterlimit: 10; stroke-width: .5px;"/>
    <path d="M25.55,30.35c1.46-.25,3.5-.43,6.39-.43s4.99,.56,6.39,1.67c1.33,1.05,2.23,2.79,2.23,4.84s-.68,3.78-1.92,4.96c-1.61,1.52-4,2.2-6.79,2.2-.62,0-1.18-.03-1.61-.09v7.47h-4.68V30.35Zm4.68,9.49c.4,.09,.9,.12,1.58,.12,2.51,0,4.06-1.27,4.06-3.41,0-1.92-1.33-3.07-3.69-3.07-.96,0-1.61,.09-1.95,.19v6.17Z" style="stroke: #000; stroke-miterlimit: 10; stroke-width: .5px;"/>
    <path d="M46.57,45.6l-1.49,5.36h-4.9l6.39-20.9h6.2l6.48,20.9h-5.08l-1.61-5.36h-5.98Zm5.3-3.54l-1.3-4.43c-.37-1.24-.74-2.79-1.05-4.03h-.06c-.31,1.24-.62,2.82-.96,4.03l-1.24,4.43h4.62Z" style="stroke: #000; stroke-miterlimit: 10; stroke-width: .5px;"/>
    <path d="M76.61,50.38c-.87,.43-2.82,.9-5.36,.9-7.22,0-10.95-4.5-10.95-10.45,0-7.13,5.08-11.1,11.41-11.1,2.45,0,4.31,.5,5.15,.93l-.96,3.75c-.96-.4-2.29-.78-3.97-.78-3.75,0-6.67,2.26-6.67,6.91,0,4.19,2.48,6.82,6.7,6.82,1.43,0,3.01-.31,3.94-.68l.71,3.69Z" style="stroke: #000; stroke-miterlimit: 10; stroke-width: .5px;"/>
    <path d="M92.14,42.13h-7.69v4.96h8.59v3.88h-13.33V30.07h12.9v3.88h-8.15v4.34h7.69v3.84Z" style="stroke: #000; stroke-miterlimit: 10; stroke-width: .5px;"/>
  </g>
</svg>