<?xml version="1.0" encoding="UTF-8"?>
<svg id="Layer_1" data-name="Layer 1" xmlns="http://www.w3.org/2000/svg" viewBox="0 0 100 100">
  <path d="M77.35,27c-.9,0-1.76,.36-2.4,.99-.64,.64-.99,1.5-.99,2.4v24.55H29.85l11.85-10.75c.76-.57,1.25-1.44,1.34-2.39,.09-.95-.22-1.89-.86-2.6-.64-.71-1.54-1.11-2.5-1.12-.95,0-1.86,.39-2.51,1.08l-18.1,16.33c-.71,.64-1.11,1.56-1.11,2.51s.4,1.87,1.11,2.51l18.1,16.33c.67,.61,1.55,.92,2.44,.88,.9-.04,1.75-.44,2.35-1.11,.63-.68,.96-1.58,.9-2.51-.06-.92-.49-1.79-1.2-2.38l-11.13-10.11h46.81c.9,0,1.76-.36,2.4-.99,.64-.64,.99-1.5,.99-2.4V30.39c0-.9-.36-1.76-.99-2.4-.64-.64-1.5-.99-2.4-.99h0Z"/>
</svg>