<?xml version="1.0" encoding="UTF-8"?>
<svg id="Layer_1" data-name="Layer 1" xmlns="http://www.w3.org/2000/svg" viewBox="0 0 100 100">
  <g>
    <path d="M13,31.96v8.8c0,.52,.37,.98,.94,1.17l14.51,4.71v-9.56c-1.12-.37-15.2-5.03-15.44-5.12h0Z"/>
    <path d="M60.15,19.46l-13.42-4.77c-.43-.15-.92-.11-1.32,.1L14.3,29.72s13.54,4.5,15.4,5.1c1.2-.69,30.45-15.36,30.45-15.36h0Z"/>
    <path d="M31.33,36.89c0,2.01,0,7.61,0,9.55l29.78-15.15c.39-.24,.64-.62,.64-1.04v-8.73c-.39,.23-30.42,15.36-30.42,15.36h0Z"/>
  </g>
  <path d="M71.34,78.79l2.01-1.16s.09-.06,.14-.08c.69-.42,1.15-1.08,1.35-1.81,.2-.73,.13-1.52-.25-2.22-.04-.05-.07-.11-.09-.16l-8.6-14.89c-.35-.61-.15-1.4,.47-1.76,.14-.08,.28-.13,.43-.15l7.29-1.25c.63-.11,1.19-.39,1.61-.8,.42-.41,.72-.95,.86-1.58,.13-.63,.07-1.25-.15-1.79-.22-.54-.62-1.02-1.15-1.38l-28.26-18.62c-.5-.33-1.04-.5-1.59-.52-.54-.02-1.1,.12-1.61,.42l-.06,.03c-.48,.29-.86,.69-1.11,1.15-.26,.48-.38,1.04-.35,1.63l1.99,33.78c.04,.64,.26,1.22,.61,1.69,.36,.47,.86,.82,1.47,1.02,.61,.2,1.23,.21,1.8,.05,.57-.16,1.09-.5,1.49-.99l4.73-5.69c.45-.54,1.26-.62,1.81-.16,.12,.1,.22,.22,.29,.34h0s8.64,14.97,8.64,14.97l.03,.06c.42,.69,1.08,1.16,1.82,1.36,.76,.2,1.59,.12,2.31-.3h0s2.08-1.2,2.08-1.2h0Z" style="fill: #e6e6e6; stroke: #000; stroke-linecap: round; stroke-linejoin: round; stroke-width: 5px;"/>
</svg>