<?xml version="1.0" encoding="UTF-8"?>
<svg id="Layer_1" data-name="Layer 1" xmlns="http://www.w3.org/2000/svg" viewBox="0 0 100 100">
  <path d="M69.02,85.67h-22.34l-3.26-3.01-16.82-14.81c-3.01-2.76-3.51-7.28-1.26-10.54,2.51-3.51,7.03-4.52,10.79-2.51l6.53,4.02v-25.85c0-4.02,3.01-7.53,7.03-7.78,2.26,0,4.27.75,5.77,2.26s2.26,3.26,2.26,5.27v12.05c0,1.26,1,2.26,2.51,2.51l14.06.75c4.52.75,7.78,5.27,7.28,10.04l-2.01,18.32c-.5,5.27-5.02,9.29-10.54,9.29ZM48.68,80.65h20.33c2.76,0,5.27-2.01,5.52-4.77l2.01-18.32c0-2.01-1-4.02-3.01-4.52l-13.55-.75c-4.02,0-7.03-3.51-7.03-7.28v-12.05c0-.5,0-1.26-.75-1.76-.25-.25-1-.75-2.01-.75-1.26,0-2.51,1.26-2.51,2.76v26.61c0,1.51-.75,3.01-2.26,3.77s-3.01.75-4.52,0l-7.28-4.52c-1.26-.75-3.26-.25-4.02,1-1,1.26-.75,3.01.25,4.02l18.83,16.57Z"/>
  <path d="M39.42,10.66c-6.08,2.38-10.95,6.45-14.25,11.79l-2.11-5.38-4.67,1.83,5.5,14.02,14.02-5.5-1.83-4.67-6.78,2.66c2.78-4.6,7.05-8.15,11.96-10.08s13.16-2.19,19.34.51l1.99-4.55c-7.48-3.27-15.68-3.56-23.16-.63Z"/>
</svg>