<?xml version="1.0" encoding="UTF-8"?>
<svg id="Layer_1" data-name="Layer 1" xmlns="http://www.w3.org/2000/svg" viewBox="0 0 100 100">
  <path d="M45.93,85.41l-3.33-2.82-16.38-14.59c-3.07-2.82-3.33-7.17-1.02-10.24,2.56-3.33,6.91-4.35,10.75-2.56l6.14,3.84v-24.83c0-4.1,3.07-7.42,6.91-7.68,1.54,0,3.07.26,4.35,1.02,1.54-2.3,3.84-3.58,6.4-3.58,4.35,0,7.93,3.84,7.93,8.45v15.61l5.37.26c4.61,1.02,7.68,5.37,7.17,10.24l-1.79,17.92c-.51,5.12-5.12,9.21-10.49,9.21h-21.75l-.26-.26ZM47.97,80.3h19.71c2.82,0,5.12-2.05,5.37-4.61l1.79-17.92c0-2.05-1.02-3.84-2.82-4.1l-9.73-.51v-21.5c0-1.79-1.28-2.56-2.82-2.56s-2.56,1.28-2.56,2.56v2.56h-5.12c0-1.28-.77-2.56-2.56-2.56-1.28,0-2.56,1.28-2.56,2.56v25.85c0,1.54-.77,3.07-2.3,3.84-1.28.77-3.07.77-4.61,0l-7.17-4.35c-1.28-.77-3.07-.26-3.84.77-.77,1.28-.77,2.82.26,3.58l18.17,16.12.77.26Z"/>
  <path d="M56.93,34.23h-5.12v19.2h5.12v-19.2Z"/>
  <path d="M72.29,26.55h-5.12c0-7.17-5.63-12.8-12.8-12.8s-12.8,5.63-12.8,12.8h-5.12c0-9.98,7.93-17.92,17.92-17.92s17.92,7.93,17.92,17.92Z"/>
</svg>