<?xml version="1.0" encoding="UTF-8"?>
<svg id="Layer_1" data-name="Layer 1" xmlns="http://www.w3.org/2000/svg" viewBox="0 0 100 100">
  <path d="M34.63,13.69v5.02h4.02l-8.53,8.28,3.51,3.51,8.53-8.28v4.02h5.02v-12.55h-12.55Z"/>
  <path d="M22.83,34.53l-8.28,8.03v-3.77h-5.02v12.55h12.55v-5.02h-4.02l8.28-8.28-3.51-3.51Z"/>
  <path d="M72.28,89h-22.34l-3.26-3.01-16.82-14.81c-3.01-2.76-3.51-7.28-1.26-10.54,2.51-3.51,7.03-4.52,10.79-2.51l6.53,4.02v-25.85c0-4.02,3.01-7.53,7.03-7.78,2.26,0,4.27.75,5.77,2.26s2.26,3.26,2.26,5.27v12.05c0,1.26,1,2.26,2.51,2.51l14.06.75c4.52.75,7.78,5.27,7.28,10.04l-2.01,18.32c-.5,5.27-5.02,9.29-10.54,9.29ZM51.95,83.98h20.33c2.76,0,5.27-2.01,5.52-4.77l2.01-18.32c0-2.01-1-4.02-3.01-4.52l-13.55-.75c-4.02,0-7.03-3.51-7.03-7.28v-12.05c0-.5,0-1.26-.75-1.76-.25-.25-1-.75-2.01-.75-1.26,0-2.51,1.26-2.51,2.76v26.61c0,1.51-.75,3.01-2.26,3.77s-3.01.75-4.52,0l-7.28-4.52c-1.26-.75-3.26-.25-4.02,1-1,1.26-.75,3.01.25,4.02l18.83,16.57Z"/>
</svg>