<?xml version="1.0" encoding="UTF-8"?>
<svg id="Layer_1" data-name="Layer 1" xmlns="http://www.w3.org/2000/svg" viewBox="0 0 282.16 200">
  <path d="M172.97,171.82l7.15,8.56s.03,.02,.04,.03c.03,.03,.07,.06,.1,.09,.03,.02,.06,.04,.08,.06,.01,0,.03,.02,.04,.03,.03,.02,.06,.05,.09,.06,.12,.05,.26,.08,.4,.08,.09,0,.17-.01,.27-.04l44.47-12.39s.04-.02,.06-.03c.06-.02,.12-.06,.18-.09,.05-.03,.1-.06,.15-.1,.05-.05,.08-.09,.12-.14,.04-.05,.08-.1,.1-.16,.03-.05,.04-.11,.06-.17,.02-.07,.04-.13,.04-.2,0-.02,.01-.04,.01-.06v-8.96s-.02-.08-.03-.13c0-.05,0-.09-.01-.14,0-.02-.02-.04-.03-.06-.03-.06-.06-.12-.09-.18-.03-.04-.04-.09-.07-.12,0,0,0,0,0,0l-7.13-8.54s0,0,0,0v-.02s-.02,0-.03,0c-.17-.19-.4-.31-.65-.34-.01,0-.03,0-.04,0-.1,0-.21,0-.32,.03l-44.47,12.39s-.04,.02-.06,.03c-.06,.02-.12,.06-.17,.09-.04,.03-.09,.04-.13,.07,0,0,0,0,0,0,0,0,0,.01-.01,.02,0,0,0,0,0,.01-.05,.04-.08,.09-.12,.14-.04,.05-.08,.1-.11,.16-.03,.05-.04,.11-.06,.17-.01,.06-.04,.1-.05,.16,0,.02,0,.03,0,.05,0,.02-.01,.04-.01,.06v8.96c0,.23,.09,.42,.21,.59,0,.01,0,.03,.01,.04h0Zm44.88-20.86l5.76,6.89-42.38,11.8-5.76-6.89,42.38-11.8Zm-43.13,13.99l5.17,6.19v5.87l-5.17-6.19v-5.87Zm7.15,6.58l42.49-11.84v6.9l-42.49,11.84v-6.9Z"/>
  <path d="M28.57,166.01c.15,.09,.31,.16,.5,.16,.11,0,.23-.02,.34-.06l24.86-9.12-7.44,9.95s0,.03-.01,.05c-.07,.1-.12,.22-.15,.36,0,.02-.02,.03-.03,.05,0,.02,0,.05,0,.07,0,.03-.01,.05-.01,.07l-.07,9.89s.02,.08,.03,.13c0,.06,.02,.12,.04,.18,.02,.06,.05,.12,.08,.17s.06,.1,.1,.16c.04,.05,.09,.08,.14,.12,.05,.04,.1,.08,.16,.11s.11,.05,.17,.06c.05,.01,.08,.04,.13,.05l15.66,2.28s.09,0,.13,0h.01c.15,0,.28-.04,.41-.09,.04-.02,.07-.05,.1-.07,.03-.02,.06-.04,.09-.06,.02-.02,.04-.02,.06-.04,.03-.03,.06-.06,.09-.09,.01-.02,.04-.02,.05-.04l.06-.08v3.7s.02,.08,.03,.13c0,.07,.02,.13,.04,.2,.02,.06,.05,.12,.09,.17,.03,.05,.06,.1,.1,.15,.05,.06,.1,.1,.16,.14,.03,.03,.06,.06,.09,.08l11.79,6.63s.03,0,.05,.01c.13,.07,.28,.11,.43,.11h0c.16,0,.31-.05,.44-.12,.02,0,.03,0,.05-.01,0,0,0,0,0,0l.87-.52,11.33,6.8s.01,0,.02,0c.01,0,.03,.01,.04,.02,.12,.07,.26,.11,.41,.12h.04s.02,0,.03,0c.16,0,.32-.05,.46-.13,0,0,.01,0,.02,0l17.99-10.92,4.41,2.72s.01,0,.02,0c.01,0,.03,.01,.04,.02,.12,.07,.27,.11,.42,.12h.04s.03-.01,.04-.01c.16,0,.31-.05,.44-.12,0,0,.01,0,.01,0l11.53-6.78c.05-.03,.09-.08,.13-.12,.03-.02,.05-.04,.07-.06,.16-.16,.25-.37,.27-.59,0-.02,.02-.03,.02-.05l.02-.5,1.25,.7s0,0,0,0c0,0,.02,0,.03,.01,.12,.06,.26,.1,.41,.11h.04s.02,0,.03,0c.17,0,.34-.05,.48-.14,0,0,.02,0,.03,0l10.94-7.1s.07-.07,.1-.1c.03-.02,.04-.04,.07-.06,.16-.17,.25-.37,.27-.59,0-.02,.02-.03,.02-.04l.31-7.82,2.95,.05h.02c.18,0,.34-.06,.49-.14,.03-.02,.06-.04,.1-.07,.14-.1,.26-.23,.33-.4,0,0,0,0,0,0l3.93-9.54s0,0,0,0v-.02s.02-.1,.03-.15c.02-.07,.05-.14,.05-.21,0,0,0,0,0-.01,0-.03,0-.06-.01-.09,0-.03-.01-.05-.02-.07s-.01-.06-.02-.08c-.01-.05-.01-.09-.03-.14-.02-.04-.05-.07-.07-.1-.04-.07-.08-.15-.14-.21-.02-.02-.04-.03-.06-.04,0,0,0,0-.01,0-.01-.01,0-.03-.02-.04l-1.51-1.2,6.36,1.15c.06,.01,.12,.01,.17,.01,.21,0,.4-.08,.56-.2,.04-.03,.07-.05,.1-.08,.01-.01,.04,0,.05-.02,.02-.02,.01-.06,.03-.08,.04-.05,.09-.07,.12-.12l5.16-9.11c.08-.15,.11-.31,.11-.47,0-.03,0-.06,0-.08-.02-.23-.1-.44-.27-.61-.01-.01,0-.03-.02-.04l-.61-.59,.69-4.81c.04-.25-.03-.5-.17-.69,0,0,0-.01,0-.02v-.02s-.02,0-.02,0l-.35-.49,.59-1.69s.09-.01,.14-.04c.03-.01,.04-.04,.06-.06,.03-.02,.05-.03,.07-.05,.02-.02,.04-.04,.06-.06,.12-.12,.22-.26,.27-.42,0,0,0,0,0,0l2.81-9.71h0c.04-.13,.05-.26,.03-.39-.02-.13-.06-.26-.12-.37l-4.14-7.37s0,0,0-.01,0,0-.01-.01c0-.01-.02-.02-.03-.04-.04-.06-.08-.1-.12-.15-.03-.03-.05-.07-.08-.09-.02-.02-.05-.03-.06-.04-.05-.03-.1-.06-.16-.08-.04-.02-.07-.04-.1-.05,0,0,0,0-.01,0-.03,0-.06,0-.09-.01-.02,0-.04-.02-.06-.02l-13.6-1.78,.23-4.33,18.27-1.55c.14-.01,.27-.05,.38-.11h0l6.2-3.33s.01-.01,.03-.02c.05-.03,.09-.07,.14-.11,.05-.04,.09-.07,.13-.11,0,0,.01-.02,.02-.03,.03-.04,.05-.09,.08-.14,.03-.06,.07-.1,.08-.17,0,0,0-.02,0-.03,.01-.05,.01-.1,.02-.16,0-.03,0-.06,0-.09,0-.03,.01-.07,.01-.1h0s0-.03-.01-.04c0-.01,0-.02,0-.03l-1.65-10.71c-.01-.07-.05-.12-.06-.18-.02-.05-.03-.1-.06-.15-.05-.08-.11-.16-.17-.22-.02-.02-.03-.04-.06-.06-.07-.06-.16-.1-.24-.14-.03-.01-.06-.03-.09-.05-.07-.02-.15-.02-.22-.03-.05,0-.1-.02-.15-.02l-11.54,.98-.35-1.89,7.23-3.7s0,0,0,0c.01,0,.02-.02,.03-.02,.06-.03,.1-.07,.14-.12,.04-.04,.09-.06,.13-.1,0,0,.01-.02,.02-.03,.04-.05,.06-.1,.09-.16,.03-.05,.06-.09,.08-.15,0-.01,0-.02,0-.03,.01-.05,.01-.11,.02-.16,0-.07,.03-.12,.02-.19h0s0-.02-.01-.04c0-.01,0-.02,0-.03l-1.61-10.73c0-.06-.04-.12-.06-.17-.02-.05-.03-.11-.06-.16-.04-.07-.1-.13-.15-.19-.03-.03-.06-.07-.09-.1-.05-.04-.11-.07-.17-.1-.06-.03-.11-.07-.17-.08-.05-.01-.11-.01-.16-.02-.07,0-.13-.03-.2-.02l-3,.25s.02-.02,.03-.03c.04-.03,.07-.05,.1-.08,.02-.01,.03-.03,.04-.05,.04-.05,.08-.09,.12-.14,.03-.05,.06-.11,.08-.17,.03-.06,.05-.12,.06-.18,0-.04,.02-.08,.02-.12,0,0,.01-.01,.01-.02,0-.03-.01-.05-.01-.08,0-.03,0-.06,0-.09l-1.36-10.73s-.03-.07-.04-.11c-.02-.06-.03-.12-.06-.18-.03-.06-.06-.11-.1-.16-.04-.06-.08-.1-.13-.15-.04-.04-.08-.07-.13-.09-.06-.04-.13-.07-.2-.1-.05-.02-.1-.03-.16-.04-.05,0-.08-.03-.13-.03l-7.15-.3,5.15-2.25s.02-.01,.03-.02c.04-.02,.06-.04,.1-.06,.05-.03,.08-.06,.12-.1,.03-.03,.06-.05,.09-.08,.02-.03,.04-.05,.06-.08,.03-.04,.06-.09,.08-.14,.02-.04,.04-.07,.06-.11,.01-.03,.01-.06,.02-.09,.01-.05,.02-.1,.03-.16,0-.05,.01-.08,.01-.13,0-.01,0-.02,0-.03,0-.03-.02-.05-.02-.07,0-.02,0-.05,0-.07l-2.45-10.54s-.03-.07-.05-.1c-.03-.08-.06-.14-.1-.21-.02-.03-.05-.07-.07-.1-.06-.07-.12-.13-.2-.19-.03-.02-.05-.03-.08-.05-.08-.04-.16-.08-.25-.1-.06-.01-.11-.01-.17-.02-.05,0-.09-.02-.14-.01l-12.02,.99-1.31-7.12h0s0,0,0,0h.02l10.42-1.74h.02c.05,0,.1-.04,.15-.06,.07-.03,.15-.04,.21-.08,.05-.03,.07-.07,.11-.1,.06-.05,.12-.09,.17-.16,.03-.04,.04-.09,.07-.14,.03-.07,.07-.13,.09-.21,.01-.05,0-.11,0-.16,0-.07,.02-.14,.01-.22l-1.58-10.37,2.57-.49h.04c.05-.01,.09-.05,.14-.06,.06-.02,.12-.03,.17-.06,.01,0,.03-.01,.04-.02,.05-.03,.08-.07,.12-.11,.04-.04,.08-.07,.12-.12,.01-.01,.02-.02,.03-.04,.03-.05,.05-.1,.07-.15,.03-.05,.05-.1,.07-.15,0-.02,.01-.03,.02-.05,.01-.06,0-.11,0-.17,0-.05,.02-.09,.02-.14,0-.01,0-.02,0-.03,0,0,0-.02,0-.03v-.03s-1.64-10.8-1.64-10.8c0-.05-.03-.08-.04-.12-.02-.08-.04-.16-.08-.23-.01-.03-.04-.05-.06-.08-.06-.08-.11-.16-.19-.21-.01,0-.03-.01-.04-.02-.09-.07-.19-.12-.3-.14-.03,0-.05,0-.08,0-.09-.01-.18-.04-.28-.03l-14.5,1.25,11.54-2.42c.09-.02,.17-.07,.24-.1,.04-.02,.08-.03,.12-.05,.03-.02,.05-.05,.07-.08,.07-.06,.14-.12,.19-.2,0,0,0,0,0,0,.07-.1,.12-.22,.14-.35,.03-.12,.03-.26,0-.39,0,0,0,0,0,0l-2.19-10.72h0s0,0,0,0h0c-.03-.13-.08-.25-.15-.35,0,0,0-.01,0-.02-.04-.06-.1-.1-.16-.16-.17-.16-.4-.25-.65-.25-.07,0-.13-.01-.2,0l-12.73,2.48-.63-2.18v-.02s-.05-.07-.07-.11c-.03-.08-.07-.16-.12-.23-.02-.03-.06-.05-.08-.07-.06-.06-.12-.12-.2-.17-.07-.05-.16-.06-.24-.08-.04,0-.07-.03-.1-.03-.09-.01-.17,0-.27,.01-.04,0-.08,0-.12,0l-12.99,3.39s0,0-.01,0h0s-.01,0-.02,.01c0,0-.01,0-.02,0l-27.07,9.22c-.06,.02-.1,.06-.14,.08-.06,.03-.12,.06-.17,.1-.05,.04-.08,.1-.12,.15-.04,.05-.08,.09-.11,.15-.03,.06-.04,.12-.06,.18s-.05,.12-.05,.18,0,.12,.01,.19c0,.06,0,.12,.01,.18l2.86,9.99-13.07,3.54h-.01c-.06,.02-.1,.06-.16,.08-.01,0-.03,.01-.04,.02-.05,.03-.1,.04-.15,.07,0,0,0,0,0,0-.05,.04-.08,.09-.12,.13,0,0-.02,.02-.03,.03-.03,.04-.08,.07-.1,.12,0,0,0,0,0,0-.03,.05-.04,.11-.06,.17,0,0,0,0,0,.01-.02,.06-.05,.11-.06,.17h0c0,.06,0,.13,0,.18v.02c0,.06,0,.12,0,.19h0s2.77,10.62,2.77,10.62c.04,.14,.14,.23,.23,.34,.05,.06,.07,.15,.13,.19,.11,.08,.26,.1,.4,.14,.07,.01,.13,.07,.2,.07,.02,0,.03,0,.05,0,.06,0,.13,0,.2-.03h0l7.54-1.91,1.93,10.36h0c.03,.16,.14,.26,.22,.38,0,0,0,0,0,0,.05,.06,.06,.14,.11,.19,0,0,0,0,0,0,.17,.14,.39,.23,.63,.23,.05,0,.11,0,.16-.01h.01s0,0,0,0l1.92-.32,1.73,9.44h0v.02h0c.03,.15,.13,.25,.21,.37,.05,.07,.06,.16,.12,.21h0c.17,.15,.39,.23,.63,.23,.06,0,.11,0,.17-.01l8.64-1.45-8.55,2.73c-.05,.02-.08,.05-.13,.07-.06,.03-.12,.05-.17,.09-.05,.04-.09,.09-.13,.14s-.08,.09-.12,.15c-.03,.06-.05,.12-.07,.17-.02,.06-.04,.12-.05,.17,0,.07,0,.13,0,.2,0,.05,0,.09,0,.14l1.6,7.52h-1.02s-.01-.01-.01-.01c-.02,0-.04,0-.06,.01-.02,0-.04,0-.06,0-.03,0-.05,.02-.07,.02-.03,0-.06,0-.09,0l-10.53,3.01s-.07,.04-.1,.05c-.06,.03-.12,.05-.17,.09-.05,.04-.1,.08-.14,.12-.05,.05-.08,.09-.12,.14-.04,.06-.06,.11-.09,.17-.02,.06-.04,.11-.06,.17-.01,.07-.02,.13-.02,.2,0,.04-.01,.07,0,.11l1.21,10.78s.02,.03,.02,.04c0,.04,0,.08,0,.12,0,.01,.02,.02,.02,.03,.05,.16,.14,.3,.26,.42,.02,.01,.03,.02,.05,.04,.03,.02,.05,.04,.08,.06,.15,.1,.32,.17,.52,.17l6.83,.1-13.92,6.81s-.06,.05-.09,.07c-.06,.04-.11,.07-.16,.12-.05,.05-.08,.09-.12,.14-.04,.05-.07,.1-.09,.16-.03,.06-.05,.12-.06,.17-.01,.06-.03,.12-.03,.19,0,.06,0,.13,.01,.19,0,.04,0,.07,0,.11l2.81,9.9s.03,.03,.03,.05c.01,.04,.01,.08,.03,.11,0,0,0,0,0,0,.07,.13,.16,.24,.28,.34,.02,.01,.04,.02,.05,.03,.03,.03,.07,.04,.11,.06,.05,.03,.09,.06,.14,.08l8.69,2.76c.1,.03,.2,.05,.3,.05,.14,0,.29-.03,.43-.1l15.93-7.79,7.23-.66s.02,0,.03,0l1.1,5.83s0,0,0,.01c0,0,0,.02,0,.03,.01,.05,.06,.07,.08,.12l.05,.32-23.21,4.7c-.3,.06-.53,.26-.67,.52-.02,.03-.03,.06-.04,.09-.03,.08-.06,.16-.07,.24,0,.02-.02,.04-.02,.06l-.07,1.2-2.48-1.06s-.02,0-.03,0c-.05-.02-.1-.03-.16-.04-.04,0-.07-.03-.11-.03-.02,0-.03,0-.05,0-.02,0-.04,0-.06,0-.04,0-.08,.01-.12,.02-.07,0-.15,.02-.22,.05,0,0-.02,0-.03,.01h-.02s-.03,.01-.04,.02l-10.2,5.11s-.05,.04-.07,.06c-.07,.04-.12,.08-.17,.14-.02,.03-.05,.04-.07,.07l-12.99-9.2s-.07-.03-.1-.05c-.07-.04-.14-.07-.21-.09-.06-.02-.11-.02-.17-.03-.07,0-.13-.01-.2,0-.07,0-.14,.03-.2,.05-.04,.01-.08,.01-.11,.03l-8.5,4s-.07,.06-.11,.08c-.06,.04-.13,.08-.18,.14-.03,.03-.04,.06-.06,.08,0,.01-.02,0-.03,.02,0,.01,0,.03-.01,.05-.03,.06-.07,.1-.1,.17-.03,.07-.03,.14-.04,.21,0,.05-.03,.09-.03,.15v13.44s.02,.08,.03,.12c0,.03,.01,.06,.02,.09,.05,.23,.17,.42,.35,.56,.01,0,0,.03,.02,.04l7.38,5.23-41.63,15.28s-.02,.01-.03,.02c-.06,.02-.1,.06-.15,.09-.06,.04-.12,.07-.17,.11-.01,.01-.02,.02-.03,.04,0,0,0,0-.01,0,0,0,0,.02-.01,.03-.02,.02-.03,.05-.05,.07-.04,.06-.08,.1-.11,.17-.02,.05-.03,.11-.04,.16-.02,.07-.04,.14-.04,.21,0,0,0,.02,0,.03v8.95s0,.02,0,.03c0,.02,0,.03,0,.05,.02,.25,.13,.47,.3,.64,0,0,0,.01,0,.02l8.83,8.03s.03,0,.04,.01c0,0,.02,.01,.03,.02,.03,.02,.06,.04,.1,.06h0Zm33.14-31.96l7.17,6.53-39.59,14.51-7.17-6.52,39.59-14.51Zm1.42-24.39l13.29,9.41-.62,7.16-19.11-13.54,6.45-3.03Zm26.63-3.69l-5.96-1.89,37.4-18.29,5.96,1.89-2.82,1.38h0l-6.9,3.37-4.16,.95c-.06,.01-.11,.05-.17,.08-.06,.03-.12,.04-.17,.08-.05,.04-.09,.09-.13,.13-.05,.05-.1,.09-.13,.14-.03,.05-.05,.11-.07,.17-.03,.06-.06,.12-.07,.18-.01,.07,0,.14,0,.21,0,.06-.01,.11,0,.17l.05,.27-7.08,3.47-15.73,7.7Zm-10.39-66.43l-2.27-8.7,10.7-2.72,2.27,8.7-10.7,2.72ZM126.21,3.95l.61,2.13,.05,.18s0,0,0,0v.02l.6,2.06h0s1.22,4.24,1.22,4.24l-11.08,2.89-2.47-8.63,11.08-2.89Zm22.78,46.81l2,8.59-7.71,.64-1.83-8.6,7.54-.62Zm12.51,56.53l-17.94,1.52c-.06-.12-.14-.22-.24-.3-.01-.01,0-.03-.02-.04l-.51-.41,20.51-1.74-1.8,.97Zm-19.18,57.12l-3.27-.06h-.23s0,0,0,0h-.03l-11.97-.21-3.33-.06h-.03l-2.57-.05-10.8-.18,3.13-7.6,32.24,.55-3.13,7.61Zm-112.27-7.5l39.71-14.55v4.97l-6.88-1c-.08,0-.15,0-.23,.02-.03,0-.06,0-.09,0-.23,.05-.42,.16-.57,.33-.01,.02-.04,.01-.05,.03l-5.51,7.37-26.39,9.68v-6.85s0,0,0,0Zm76.87-46.77l1.37,.65-1.52,.74,.15-1.4Zm-2.24,2.42l-8.1,3.96c0-.08,0-.16-.03-.24,.01-.03,.04-.04,.05-.06,.03-.08,.04-.16,.05-.25,0-.02,.02-.03,.02-.05v-.03s0-.01,0-.02l.1-1.01,8.12-4.45-.22,2.14Zm-8.81,6.51l10.17-4.97,4.96-2.42h0s4.63-2.26,4.63-2.26v2.23l-2.71-.32s-.07,0-.11,0c-.05,0-.1,0-.15,0-.09,.01-.17,.03-.25,.07-.03,.01-.06,.03-.1,.05-.07,.04-.14,.09-.2,.15-.03,.03-.06,.07-.09,.11-.05,.06-.08,.12-.12,.2-.01,.03-.03,.05-.04,.07l-2.26,6.52-10.25,5.01-8.25-2.11,4.77-2.34Zm26.06-35.12l-2.17-7.62,6.42,2.04,.53,1.89h0s1.64,5.73,1.64,5.73l-6.43-2.04Zm24.67-6.83l-2.19,.19h-.01s-.02,0-.03,0-.02,0-.03,0c-.05,0-.1,.04-.15,.05-.05,.02-.1,.02-.16,.04l-.73,.37-10.7-.49-4.78-.22s-.01-.01-.02-.02c-.04-.06-.07-.1-.12-.15-.04-.04-.08-.08-.14-.11-.06-.04-.12-.07-.18-.1-.03-.01-.05-.03-.08-.04l-5.51-1.75,28.1,1.28-3.28,.95Zm-5.74,24.93l-5.07,.42-.05-.04,5.36-.44-.25,.06Zm10.57,26.17h0l2.73,1.28,3.84,1.81-1.01,2.92s0,0,0,0l-.13,.38-.97,2.79-.79,2.27-2.87-1.35-3.2-3.05s-.03,0-.04-.02c-.05-.04-.08-.08-.13-.11,0,0-.01-.01-.02-.02-.01,0-.03,0-.04,0-.08-.05-.17-.09-.27-.11l-5.4-.97-23.08-10.87,2.9-8.36,.73,.35h0l.59,.28,5.36,2.52h0s1.6,.76,1.6,.76h0l4.81,2.27s0,0,0,0l.31,.15,15.08,7.1Zm-8.76,15.77l-10.85-1.95,1.77-6.02s0-.02,0-.03c0,0,0,0,0,0,.01-.05,0-.1,0-.16,0-.06,.02-.12,.01-.17,0-.01,0-.03,0-.04,0-.06-.03-.11-.05-.16s-.03-.11-.05-.16c0-.01-.01-.02-.02-.04-.03-.05-.07-.08-.11-.13-.04-.05-.07-.09-.11-.13,0,0-.02-.02-.03-.03-.05-.03-.1-.05-.15-.08-.05-.03-.08-.06-.14-.08l-3.61-1.23,1.73,.31,11.57,2.08,4.16,.75-4.12,7.29Zm-43.1,12.45l1.16-2.82h0s1.99-4.84,1.99-4.84l8.62,6.78-3.16,7.66-8.62-6.78Zm2.76-10.23h0s-.07,.01-.11,.01c-.01,0-.03,0-.04,0-.11,.02-.21,.05-.31,.1-.12,.06-.22,.14-.3,.24,0,0-.02,0-.02,.01,0,.01,0,.03,0,.04-.05,.06-.1,.12-.13,.2h0s-2.17,5.26-2.17,5.26l-2.91-.72,4.11-7.63,10.73,2.62-8.83-.15Zm-16.11-2.71h0s.2-.36,.2-.36h0s0,0,0,0l3.78-7.02,8.46,6.74-4.12,7.66-8.46-6.74,.15-.27Zm1.53-12.47l2.29-7.78,29.57,10.1-2.53,8.62-17.82-6.09h0l-11.76-4.01,.25-.83Zm25.73-17.66l3.03,.36h0l4.52,.53-2.89,8.33-7.55-.9,.76-2.17h0s2.13-6.16,2.13-6.16Zm11.33,.12l-.16-.07-7.2-6.19,5.04-1.02h.04s0,0,0,0l5.52-1.13,5.45-1.11-.41,7.85-8.29,1.68Zm-4.64-1.31l-2.55-.3v-1.89l2.55,2.19Zm9.44,30.36l-.75,2.52-3.48-.89-6.41-1.64,2.53-8.62,9.9,2.53-1.79,6.09Zm-7.28-12.75l1.72,.81-2.59-.47,.87-.35Zm9.22,2.16l-8.77-4.13s0,0,0,0l-2.07-.98h0l-5.52-2.6,3.35,.4,17.07,8.04-4.06-.73Zm-23.24-9.74s0,.07-.01,.1-.03,.07-.03,.1c0,.01,0,.03,0,.04v.09c0,.05,.01,.1,.02,.16,0,.05,0,.09,.03,.14,0,.03,.02,.05,.03,.07,.02,.05,.05,.09,.07,.13,.03,.04,.05,.08,.08,.12,.02,.02,.04,.04,.06,.06,.03,.04,.07,.06,.12,.09,.05,.03,.08,.07,.13,.09,.01,0,.02,.01,.03,.02l9.18,4.32-2.33,1.14-13.44-4.59,6.46-3.16-.38,1.07Zm11.81,24.3l-19.75-4.83-6.35-5.06,4.64,1.13,18.76,6.41s.01,0,.02,0c0,0,.01,0,.02,.01,0,0,.01,0,.02,0,0,0,0,0,.01,0l7.19,1.84,.72,.57-5.29-.08Zm16.82-27.33l-4.55-3.61s-.03,0-.05-.01c-.05-.04-.1-.07-.15-.1-.06-.03-.12-.04-.19-.05-.05-.01-.1-.04-.15-.05-.01,0-.02,0-.03,0-.04,0-.08,0-.12,.01-.03,0-.05,0-.08,.01-.06,.01-.12,.01-.18,.04,0,0-.02,0-.03,0l-1.33,.53-2.27-1.07,5.98-1.21,6.12,4.9-2.97,.6Zm2.68-11.13l2.06,1.63v.12s0,0,0,0h0s-.32,6.12-.32,6.12h0s-.06,1.21-.06,1.21l-6.22-4.98,.39-7.45,4.17,3.34Zm-9.52-7.16l-1.66-8.8,9.01-.74,7.22-.59,7.28-.59,.33,1.78h0s.66,3.49,.66,3.49h0s.67,3.53,.67,3.53l-23.5,1.92Zm8.2-20.56l-.13-.82,1.59,.07-1.46,.75Zm6.02,8.48l-4.6,.37-1.09-6.8,5.08-2.6,1.31,8.66-.71,.36Zm-25.05-24.41l1.11,8.75-9.69,2.8-.52-4.08-.26-2.07-.32-2.59,9.69-2.81Zm10.98,23.96s.05-.05,.08-.07c0,0,0,0,0,0,.02-.01,.04-.02,.06-.03,.03-.03,.06-.06,.09-.09,.05-.04,.08-.09,.12-.14,.04-.05,.07-.11,.1-.17,.01-.03,.03-.06,.05-.09,0,0,0,0,0,0,0-.03,0-.06,0-.09,.01-.06,.02-.12,.02-.17,0-.04,0-.07,0-.11,0-.04-.02-.07-.03-.11,0-.03,0-.06,0-.09l-1.82-6.35,3.83-.35,3.49-.32,.29,1.81h0s1.13,7,1.13,7l-10.73,.99,3.3-1.61Zm-12.26,5.96l1.97-.45h0l6.52-1.49,1.66,8.81-11.83,2.7-1.11-5.91h0s-.54-2.83-.54-2.83v-.08s3.33-.76,3.33-.76Zm-32.02,35.72l-7.8,3.81v-5.46s0-.69,0-.69l9.36-4.56h0l.57-.28-2.12,7.18Zm-.67,2.53c0,.07,.03,.13,.05,.19,.02,.06,.03,.12,.05,.17,.03,.06,.08,.11,.12,.17,.04,.05,.06,.09,.11,.13,.06,.05,.13,.08,.2,.12,.04,.02,.08,.06,.12,.07h.04s0,.01,0,.01h0l2.85,.98-3.59,6.68-6.3-5.42,6.34-3.1Zm-1.22,12.11s.06,.05,.08,.07c.01,.01,.01,.03,.03,.05l10.03,7.99s0,0,0,0c.03,.02,.05,.03,.08,.05,.02,.01,.04,.04,.06,.05,.03,.02,.07,.01,.1,.03,.05,.02,.08,.05,.14,.06l3.86,.95-1.01,2.45c-.06,.16-.07,.31-.06,.47,0,.03,0,.05,.01,.07,.04,.23,.15,.43,.33,.59,.01,.01,0,.03,.02,.04l10.24,8.06s.04,0,.06,.02c.06,.04,.1,.08,.17,.11,0,0,0,0,0,0,.07,.03,.13,.03,.2,.04,.05,.01,.1,.04,.16,.04l7.86,.14-5.7,2.58-28.98-22.79h0s0,0,0,0l2.31-1.04Zm53.63,21.95l-10.09,5.44h0l-2.77,1.5s0,0,0,0l-11.41,6.15s-.08,.05-.12,.07l-7.04,3.8h0l-2.55,1.38,.28-6.43,2.84-1.53,2.77,2.17s.03,0,.05,.02c.03,.02,.05,.04,.08,.05,.13,.08,.28,.14,.45,.14h.04c.14,0,.28-.03,.41-.09h.02s12.85-5.83,12.85-5.83c.09-.04,.16-.1,.23-.17,.01-.01,.03-.02,.05-.04,.17-.17,.26-.38,.28-.62,0-.02,.01-.03,.02-.04l.21-5.03,2.71-1.47,10.7,.19-.02,.33Zm-47.3,20.27l-9.99-5.99,5.72-3.47,4.33,2.77s.02,0,.03,0c.02,0,.03,.02,.05,.03,.12,.07,.27,.11,.42,.12h.04s.03-.01,.04-.01c.12,0,.25-.04,.36-.09l4.72,3.18-5.71,3.45Zm18.92-10.47l-1.75-1.37s0,0,0,0h0s-10.29-8.1-10.29-8.1c0,0-.02,0-.02,0l-.04-.04s-.01,0-.02,0c0,0,0-.01-.01-.02l-10.25-8.06-.1-.08s-.01,0-.02-.01c0,0,0,0,0-.01l-6.29-4.94,.2-4.5,.08-1.81,28.81,22.66-.27,6.3Zm-6.22,.35l-9.4-6.33,2.86-1.54,8.59,6.77-2.05,1.11Zm-16.41-1.32l-.18-.12s0,0-.01,0h0s-6.01-3.84-6.01-3.84l.26-6.48,9.6,6.13-.27,6.47-3.38-2.16Zm-14.43-6.24l.24,.15-.64,.38,.4-.53Zm2.68-.67h0s-2.41-1.49-2.41-1.49c0,0,0,0,0,0l-4.19-2.6v-.07s.26-6.43,.26-6.43l9.74,6.05-.26,6.5-3.14-1.95Zm16.47,.89s-.02,.02-.03,.02l-9.65-6.16,4.47-2.53,8.59,6.75-3.38,1.91Zm-13.07-18.27h0s.3-.18,.3-.18l-.14,3.2s.01,.08,.02,.12c0,.03,0,.06,.01,.09,.04,.23,.15,.42,.32,.57,.01,.01,0,.03,.02,.04l5.55,4.35-5.06,2.94-9.77-6.07,8.74-5.07Zm-11.07,14.94l3.31,2.06-3.14,4.2-2.89,1.72s-.03,.03-.04,.04c-.04,.03-.07,.05-.1,.08-.03,.03-.07,.06-.1,.1-.02,.03-.05,.05-.07,.07l.04-4.25,3-4.01Zm1.35,7.86s0,0,0,0l5.79-3.43,4.08,2.53s.01,0,.02,0c.02,0,.03,.01,.05,.02,.13,.07,.27,.12,.42,.12h.04s.05-.02,.07-.02c.1,0,.2-.04,.3-.08l4.7,3-7.25,4.3-9.8-5.51,1.6-.95Zm29.92,8.72h0s-.02-.02-.02-.02l-6.07-4.09,.28-6.41,9.33,6.28-.28,6.41-3.23-2.17Zm23.82-15.75l-.21,4.99-10.85,4.91,.28-6.53,9.49-4.3,1.34,.03-.04,.9h0Zm-43.1-22.18s-.05,.03-.06,.05c-.02,.02-.05,.05-.07,.07,0,0-.01,0-.02,.01,0,.01,0,.03-.01,.04-.1,.15-.17,.31-.18,.49,0,.01-.02,.02-.02,.04l-.14,3.19h0s-.04,0-.06,0c-.05-.01-.09-.04-.14-.05l-6.82-.99v-6.68s0-.02,0-.03c0-.01,0-.03,0-.05,0-.04-.01-.07-.02-.1,0-.05,0-.11-.03-.16,0,0,0-.01-.01-.02-.03-.07-.08-.14-.12-.2-.03-.04-.05-.08-.08-.12-.01-.01-.03-.02-.04-.03,0,0,0-.01,0-.01l-6.02-5.48,14.01,9.94c-.06,.03-.1,.07-.15,.11h0Zm-21.41,10.74l5.34-7.13,7.43,1.08,5.43,.79-8.85,5.13s-.02,.02-.04,.03c-.04,.03-.07,.06-.1,.08l-.06,.06s-.08,.08-.12,.13c0,.01-.02,.02-.03,.03-.01,.02-.01,.05-.03,.07-.02,.04-.03,.07-.05,.11-.02,.05-.04,.09-.05,.15,0,.04-.01,.07-.02,.11,0,.02-.01,.03-.01,.05l-.31,7.82-3.53,4.73-13.44-1.95,8.43-11.29Zm-9.25,13.16l13.7,1.99-.07,7.89-13.68-1.99,.06-7.89Zm17.44,7.97l9.81,5.52v6.68l-9.81-5.51v-6.69Zm13.12,12.49l.26-6.5,9.98,5.98-.26,6.51-9.98-5.98Zm12.21-.5l6.55-3.96,4.19,2.83s.02,0,.03,0c.02,.01,.04,.02,.06,.03,.13,.07,.27,.12,.42,.13h.05s.05-.02,.07-.02c.14-.01,.27-.04,.4-.1,0,0,0,0,0,0l2.84-1.54-14.86,9.02,.25-6.39Zm17.72-3.88s0,0,0,0l-.37-.23,4.02-2.17-.18,4.54-3.47-2.14Zm5.67-3.49l9.49-5.12-.14,3.56h0s-.06,1.57-.06,1.57l-9.5,5.59,.22-5.59Zm11.52-6.21l.74-.4-.19,4.93-.72-.4,.17-4.12Zm2.77-1.5l8.88-4.79-.19,4.81-8.91,5.78,.23-5.8Zm-16.16-19.29l-7.67-6.03,14.73,.26,8.3,.14,8.06,.15,5.33,4.19s0,0,0,0l2.34,1.84-31.09-.53Zm24.39-7.25s-.03,0-.05-.01c-.16-.11-.34-.19-.54-.2l-6.31-.11c.03-.06,.08-.09,.1-.15l.77-2.59,11.47,2.06,6.76,6.46-6.8-1.22-5.4-4.24Zm15.02,5.43l-7.87-7.53,4.15-7.34,2.4,2.29,1.68,1.61s0,0,0,0l3.37,3.22,.42,.41-4.15,7.33Zm3.7-10.51h0s0,0,0,0Zm2.73-12.46l-3.44-1.62-.2-.36,2.04-7.04,2.79,4.96-1.18,4.06Zm-5.43-2.95l-1.17-.15-12.24-5.76,2.46-.5s.08-.04,.12-.05c.06-.02,.1-.04,.16-.07,.06-.03,.11-.07,.16-.12,.02-.02,.04-.04,.06-.06,.03-.02,.06-.03,.07-.06,0,0,0-.02,0-.03,.11-.14,.17-.31,.19-.5,0-.01,.02-.02,.02-.04l.1-2.07,12.3,1.61-2.26,7.8Zm13.53-22.48l-26.3,2.23-2.51-2.01,3.05-.25s.02,0,.04-.01c.03,0,.07,0,.1-.01l13.73-3.13h.04s.07-.05,.11-.06c.06-.02,.11-.04,.17-.07,.02-.01,.04-.02,.06-.04,.04-.03,.06-.06,.1-.1,.04-.04,.08-.07,.12-.12,.01-.02,.03-.04,.05-.06,.03-.04,.04-.08,.06-.12,.03-.05,.05-.1,.06-.16,0-.03,.02-.05,.02-.07,.01-.05,0-.09,0-.14,0-.05,.02-.08,.01-.13,0-.02-.01-.03-.01-.05,0-.02,0-.03,0-.05l-.67-3.53,10.42-.88,1.34,8.76Zm-13.04-14.68l2.41-.2-2.23,1.14-.17-.94Zm6.2-2.51l-13.05,1.11-1.33-8.77,1.26-.11,11.81-1,1.32,8.77Zm-5.22-12.44l-32.44-1.48-1.11-8.74,7.64,.35h0l6.78,.31,7.45,.34,10.56,.48,1.11,8.74Zm-18.93-21.99s0,0,0,0l1.75-.17h0l1.94-.2,1.86,8.72-9.37,.95-1.86-8.72,5.67-.58Zm5.41,10.69l1.66-.53s.06-.03,.08-.05c.05-.02,.09-.04,.14-.07,.03-.02,.06-.03,.08-.06,.04-.03,.06-.06,.09-.09,.04-.04,.07-.07,.1-.11,.02-.03,.04-.06,.06-.08,.02-.04,.04-.08,.05-.12,.01-.03,.03-.05,.04-.07l2.8-.23-3.38,1.48-1.71-.07Zm-5.76-12.65l-6.61,.67s-.03,.01-.05,.01c-.02,0-.04,0-.06,0-.02,0-.03,.01-.05,.02-.02,0-.03,0-.05,0l-10.46,3.34-10.62,1.78-1.63-8.84,5.31-.89,10.27-1.73,6.94-1.17,5.89-.83,1.37,7.49-.26,.12Zm-43.39-16.47l-.79-7.68h0s-.02-.21-.02-.21l-.05-.43s0-.01,0-.02l-.06-.6,11-1.06,.91,8.94-11,1.06Zm27.94-16.3l8.72-2.98,.25,1.22-8.97,1.76Zm-28.14,18.31l1.9-.18-1.82,.5-.08-.31Zm14.63-4.26l-1.35-8.87,5.28-1.01,1.53-.29,4.1-.78,1.35,8.87-10.91,2.09Zm21.25,.44l2.42-.41,3.85-.65,1.66,8.84-8.49,1.43-1.66-8.84,2.21-.38Zm10.02,8.15l-1.66-8.84,8.03-1.35,1.35,8.89-7.73,1.3Zm9.54-13.36l-27.93,2.41-1.35-8.87,27.95-2.41,1.34,8.88Zm-16.39-11.43l-.32-1.6s.02-.03,.03-.05c.03-.04,.08-.08,.1-.12,0-.01,0-.02,.02-.03,.03-.05,.04-.11,.06-.17,.01-.05,.04-.1,.05-.15v-.04c0-.06,0-.12-.01-.17,0-.06,0-.11,0-.17,0,0,0,0,0-.01h0s-1.48-5.19-1.48-5.19l-.23-1.09,11.46-2.4,1.8,8.81-11.46,2.4Zm-17.73-8.14l2.47,8.63-18.64,6.35-6.97,.78-2.06-7.18,25.2-8.59Zm-15.75,30.75l19.97-4,4.75-.95,1.42-.28,1.66,8.84-14.34,2.87-6.28,1.06s0,0,0,0h-.01l-12.64,2.43s0,0,0,0h0c-.06,.01-.11,.05-.16,.07-.07,.03-.14,.05-.19,.08-.06,.04-.1,.09-.14,.14-.04,.04-.09,.08-.12,.12h0s-1.21,.24-1.21,.24l-1.65-8.83,8.98-1.8Zm6.55,9.66l1.63,8.84-10.71,2.06-1.61-8.84,10.7-2.06Zm12.66,9.28l2.07-.66,9.48-3.03,1.86,8.72-1.33,.43-8.56-.4h-.08s-.06,0-.1,0c-.03,0-.05,0-.07,0s-.05,.02-.07,.02c-.03,0-.05,0-.08,0h-.02s-.03,.01-.04,.02l-11.55,3.35s-.07,.04-.1,.05c-.06,.03-.12,.05-.18,.09-.05,.04-.1,.08-.14,.12-.05,.05-.08,.09-.12,.14-.04,.05-.06,.11-.08,.17-.02,.06-.05,.11-.06,.17-.01,.07-.01,.13-.01,.2,0,.04-.01,.08,0,.12l.33,2.62-5.22,1.67-5.24-.08-1.5-7.08,20.82-6.66Zm-20.13,15.71l6.19,.1,5.56,.08,.56,4.38s.02,.03,.02,.04c0,.04,0,.07,0,.11,0,0,.01,.01,.01,.02,.05,.16,.14,.3,.27,.42,.02,.02,.03,.03,.05,.05,.03,.02,.05,.04,.08,.05,.01,0,.03,.02,.05,.03l-7.34,3.59-5.62-.08-.99-8.8,1.14,.02Zm-3.1,.25l.99,8.79-8.59,2.45-.99-8.79,8.59-2.46Zm2.19,10.5l2.45,.04-2.36,1.15-4.04-.06,3.94-1.12Zm.75,3.07l6.29-3.07,10.8-5.29,4.19-2.05,2.27,7.97-38.17,18.66-2.26-7.97,16.89-8.26Zm16.56,10.19l.13,.69-1.89,.17,1.76-.86Zm-2.4,12.86l-1.56-.75,5.28-1.07-3.72,1.82Zm-15.19,3.7s-.05,.05-.08,.07c-.04,.03-.08,.06-.12,.1-.06,.06-.11,.11-.15,.17-.03,.05-.05,.09-.07,.14-.03,.07-.05,.14-.07,.21,0,.03-.02,.05-.03,.08l-.02,.24-2.28-.98,.06-1.16,7.62-1.54-4.87,2.67Zm-4.27,1.56h0l.04,.02,3.48,1.49s0,.02,0,.03l-.11,1.05-6.5,3.18,.6-6.83,2.49,1.06Zm-5.15,6.61l-8.11,4.07,.6-6.93,.05-.51,8.12-4.07-.66,7.44Zm-30.23-7.11l20.46,14.49v6.53s.02,.02,.02,.03v.04s0,.01,0,.02c0,.04,.02,.08,.03,.12,.01,.07,.02,.14,.05,.2,0,0,0,.02,0,.03,0,.02,.03,.03,.04,.04,.05,.09,.11,.18,.19,.25,0,0,0,.02,.01,.03l7.41,6.38-2.46,1.12-25.76-18.25v-11.02s0,0,0,0Zm-34.49,36l6.83,6.22v6.28l-6.84-6.23v-6.27Z"/>
  <path d="M19.02,139.65c.14,.08,.29,.14,.47,.14,.05,0,.1,0,.15-.01l15.89-2.48s.08-.03,.12-.05c.06-.02,.12-.04,.18-.06,.06-.03,.11-.07,.16-.11s.09-.08,.14-.13c.04-.05,.07-.1,.1-.16s.06-.11,.08-.17c.02-.06,.03-.12,.04-.19,0-.04,.03-.08,.03-.12v-8.96s0-.01,0-.02c0-.03,0-.05-.01-.08,0-.02,0-.04,0-.06,0-.04-.03-.07-.04-.11-.01-.05-.02-.1-.04-.14,0,0,0-.01,0-.02l-12.88-27.53s-.03-.03-.03-.05c-.03-.06-.08-.11-.12-.16-.04-.05-.07-.09-.12-.13s-.1-.06-.16-.09c-.06-.03-.12-.06-.18-.08-.05-.02-.11-.02-.16-.03-.07-.01-.14-.02-.22-.01-.02,0-.03,0-.05,0l-15.89,2.48s-.08,.03-.12,.05c-.04,.01-.09,.01-.13,.03,0,0-.01,0-.02,0-.02,0-.03,.03-.05,.04-.05,.03-.09,.06-.14,.1-.04,.03-.07,.05-.11,.08-.02,.02-.03,.04-.05,.06-.03,.05-.06,.09-.08,.14-.02,.04-.05,.08-.07,.12,0,.03-.01,.05-.02,.07-.02,.05-.02,.11-.03,.17,0,.04-.03,.08-.03,.12v8.96s0,.01,0,.02c0,.06,.02,.12,.04,.18,.01,.07,.02,.14,.05,.2,0,0,0,.01,0,.02l12.89,27.53s.02,.02,.03,.04c.06,.1,.12,.2,.21,.28,.02,.02,.04,.02,.06,.04,0,0,.01,.01,.02,.02,.04,.02,.06,.05,.1,.06h0Zm2.9-38.72l12.01,25.66-13.85,2.16-12.01-25.66,13.85-2.16Zm12.47,27.59v6.95l-13.91,2.17v-6.95l13.91-2.17ZM7.6,106.76l10.9,23.3v4.29l-10.9-23.29v-4.29Z"/>
  <path d="M271.34,98.18l-16.36,1.07s-.04,.01-.06,.02-.04,0-.06,0c-.04,0-.07,.03-.1,.04-.04,.01-.08,.02-.12,.04-.03,.01-.06,.03-.09,.05-.05,.03-.08,.06-.13,.1-.03,.03-.06,.05-.09,.07-.03,.03-.04,.05-.06,.08-.03,.05-.06,.09-.08,.14-.02,.04-.04,.06-.06,.1-.01,.03-.02,.06-.03,.1-.02,.06-.02,.11-.03,.17,0,.03-.02,.06-.02,.09v8.96s.01,.06,.02,.08c0,.04,0,.07,0,.1l5.54,28.33s.03,.03,.03,.06c.05,.18,.13,.34,.26,.47,.01,0,.02,.01,.03,.02,0,0,0,0,0,0,.03,.02,.05,.03,.07,.05,.16,.12,.35,.2,.57,.2h.06l16.36-1.07c.07,0,.12-.03,.18-.05,.06-.01,.11-.02,.16-.05,.07-.03,.12-.07,.17-.12,.05-.03,.09-.06,.13-.1,.05-.06,.08-.12,.12-.18,.03-.05,.06-.09,.08-.14,.03-.07,.04-.15,.05-.23,0-.05,.03-.08,.03-.13v-8.96s0-.02,0-.03c0-.01,0-.03,0-.04s-.02-.02-.02-.04c0-.03,0-.06,0-.09l-5.54-28.33c-.04-.19-.14-.34-.26-.47-.03-.04-.06-.07-.1-.1-.17-.14-.39-.21-.62-.21-.02,0-.03-.02-.06-.02h0Zm4.42,28.4l-14.37,.93-5.16-26.36,14.37-.94,5.16,26.37Zm-14.18,2.91l14.38-.93v6.97l-14.38,.94v-6.97Z"/>
  <path d="M173.6,94.76v8.96s0,.02,0,.03c0,.08,.03,.16,.05,.23,.01,.05,.02,.1,.04,.14,.03,.06,.07,.11,.11,.17,.04,.05,.06,.1,.11,.14,.05,.04,.1,.07,.15,.1,.06,.04,.11,.08,.17,.1,.01,0,.02,.01,.04,.02l42.77,14.25c.1,.04,.21,.05,.31,.05,0,0,.01,0,.02,0,.18,0,.34-.07,.49-.16,.04-.02,.07-.04,.1-.07,.03-.03,.07-.04,.09-.07l8.22-8.22c.18-.17,.29-.42,.29-.7v-8.97h0s0-.03,0-.04c0-.08-.02-.15-.05-.22-.01-.05-.02-.11-.05-.16,0-.01-.01-.03-.02-.05l30.11-17.85s.06-.06,.09-.08c.05-.04,.1-.08,.14-.13,.05-.05,.08-.1,.11-.16,.03-.05,.06-.1,.08-.16,.02-.07,.03-.13,.04-.21,0-.04,.02-.07,.02-.11v-8.96s-.01-.04-.01-.06c0-.05,0-.09-.02-.14s-.02-.08-.04-.13c-.01-.04-.03-.08-.05-.12-.01-.02-.01-.04-.02-.06-.01-.02-.03-.03-.04-.04-.03-.04-.05-.07-.08-.1-.03-.03-.06-.06-.1-.09-.04-.03-.07-.06-.11-.08-.02-.01-.03-.03-.05-.04l-11.79-6.63s-.07-.02-.11-.04c-.07-.03-.14-.05-.21-.07-.06,0-.11,0-.17,0-.07,0-.14,0-.21,.02-.06,.01-.12,.04-.18,.06-.04,.02-.08,.02-.12,.04l-34.44,20.42s-.03,.03-.05,.04c-.04,.02-.07,.05-.1,.08-.03,.03-.06,.06-.09,.1-.03,.04-.06,.07-.08,.11-.01,.02-.03,.03-.04,.04,0,.01,0,.03-.02,.05-.02,.04-.03,.08-.05,.12-.02,.05-.03,.09-.04,.14,0,.04-.01,.08-.01,.12,0,.02-.01,.03-.01,.05v7.71s-1.49-.49-1.49-.49v-8.81s0,0,0,0,0,0,0,0,0,0,0,0c0,0,0-.02,0-.03l-1.63-28.49s-.03-.07-.03-.11c-.08-.47-.47-.83-.96-.83h-.02l-10.97,.2s-.01,0-.02,0c0,0-.01,0-.02,0-.06,0-.11,.03-.16,.04-.06,.01-.12,.01-.17,.04-.01,0-.02,0-.03,.01-.05,.03-.09,.07-.14,.1-.05,.03-.1,.06-.14,.1,0,0-.01,.02-.02,.02-.04,.05-.07,.1-.1,.16,0,0,0,0,0,0-.03,.05-.07,.08-.08,.13,0,0,0,.02-.01,.03-.03,.07-.03,.14-.04,.21,0,.05-.03,.09-.03,.14v13.44s0,.01,0,.02c0,.01,0,.02,0,.03l1.09,19.09-10.73-3.58c-.09-.03-.17-.03-.27-.03-.02,0-.04,0-.07,0-.24,0-.46,.1-.64,.26-.01,.01-.03,0-.04,.02l-8.24,8.23s-.01,.02-.02,.03c-.03,.04-.06,.08-.08,.12-.05,.06-.09,.12-.12,.2,0,.01-.01,.02-.02,.04-.02,.06-.01,.11-.02,.17,0,.05-.03,.09-.03,.14t.02,0h0Zm9.49-7.09l11.54,3.85h0l.45,.15h0l10.97,3.66,4.04,1.34,11.23,3.74s0,0,0,0l2.43,.82-6.66,6.66-40.67-13.55,6.67-6.66Zm13.29,2.34v-3.96l8.99-.17v7.13l-8.99-3Zm8.94-6.12l-8.99,.17-1.51-26.51,8.99-.17,1.52,26.51Zm38.97-16.72l9.8,5.51-32.47,19.25-9.8-5.51,32.47-19.25Zm-19.69,42.17l-6.25,6.25v-6.16l6.25-6.25v6.17Zm-49.02-13.2l40.79,13.59v6.87l-40.79-13.59v-6.88Zm48.71,3.18l-1.66-.56v-5.11l32.46-19.25v6.65l-30.8,18.26Zm-3.64-5.65v4.43l-9.83-3.27v-6.68s9.83,5.52,9.83,5.52Z"/>
  <path d="M187.35,130.98s.02,.08,.03,.13c.01,.07,.02,.14,.04,.21,.02,.06,.06,.11,.08,.16,.03,.06,.06,.11,.11,.16s.1,.08,.16,.13c.04,.03,.06,.07,.11,.09l36.24,19.37h0s.03,0,.04,.01c.13,.07,.27,.11,.43,.11,.17,0,.31-.05,.45-.12,.02-.01,.04-.01,.06-.03,0,0,.01,0,.01,0l11.18-6.97s.05-.06,.08-.08c.05-.04,.1-.08,.14-.13,.05-.05,.08-.1,.11-.16,.03-.05,.05-.1,.07-.16,.03-.07,.04-.14,.05-.21,0-.03,.02-.06,.02-.1v-8.96s-.01-.05-.01-.07c0-.05-.01-.1-.02-.16,0-.04-.02-.07-.03-.11-.02-.04-.04-.08-.06-.12-.01-.03-.01-.05-.03-.07,0-.01-.02-.01-.03-.02-.03-.04-.05-.07-.08-.11-.05-.05-.1-.08-.16-.13-.04-.03-.06-.07-.11-.09l-36.24-19.37s-.08-.02-.12-.04c-.07-.03-.13-.05-.2-.06-.06-.01-.13-.01-.19,0-.06,0-.12,0-.17,.02-.07,.02-.14,.05-.21,.08-.03,.02-.07,.02-.1,.04l-11.17,6.97s-.02,.03-.04,.03c-.04,.03-.07,.05-.1,.08s-.06,.06-.08,.09c-.03,.04-.06,.07-.09,.12,0,.02-.03,.03-.04,.05,0,.01,0,.03-.01,.04-.02,.04-.03,.08-.04,.12-.02,.05-.03,.1-.04,.16,0,.04-.01,.07-.01,.11,0,.01,0,.03,0,.04v8.95Zm12.2-14.78l34.23,18.29-9.24,5.76-34.22-18.29,9.23-5.76Zm-10.22,7.47l34.26,18.31v6.71l-34.27-18.31v-6.71Zm36.25,18.27l9.2-5.73v6.63l-9.2,5.73v-6.63Z"/>
</svg>