<?xml version="1.0" encoding="UTF-8"?>
<svg id="Layer_1" data-name="Layer 1" xmlns="http://www.w3.org/2000/svg" viewBox="0 0 160 200">
  <path d="M102.14,171.22v-9.98c0-.79-.43-1.52-1.12-1.89v-5.34c0-.26-.05-.51-.14-.75l.26-.16c.62-.39,1-1.08,1-1.82v-9.98c0-.36-.09-.72-.26-1.02v-6.7c0-.77-.41-1.48-1.07-1.87l-5.4-3.12,5.4-3.11c.67-.39,1.08-1.1,1.08-1.87v-9.98c0-.36-.08-.7-.25-1.01l.34-.22c.62-.4,.99-1.08,.99-1.82v-9.96c0-.79-.43-1.52-1.12-1.89v-5.34c0-.77-.41-1.48-1.08-1.87l-5.4-3.12,5.4-3.12c.67-.39,1.08-1.1,1.08-1.87v-9.96c0-.23-.04-.46-.11-.68,.26-.36,.41-.8,.41-1.26v-9.99c0-.79-.43-1.52-1.12-1.89v-5.33c0-.26-.05-.52-.14-.76l.26-.17c.62-.4,1-1.08,1-1.82v-9.98c0-.36-.09-.72-.26-1.02v-6.7c0-.77-.41-1.48-1.07-1.87l-9.28-5.36c.16-.3,.25-.65,.25-1V15.67c0-.81-.45-1.54-1.17-1.92l-14.52-7.55c-.31-.16-.65-.24-1-.24-.41,0-.81,.11-1.17,.34l-8.36,5.36-6.22-3.59c-.33-.19-.71-.29-1.08-.29s-.74,.09-1.08,.29l-6.7,3.86L34.3,2.58c-.33-.19-.71-.29-1.08-.29s-.75,.09-1.08,.29l-13.82,7.98c-.67,.39-1.08,1.1-1.08,1.87v9.96c0,.77,.41,1.48,1.08,1.87l5.4,3.12-5.4,3.12c-.67,.39-1.08,1.1-1.08,1.87v8.98l-1.54,.96c-.63,.39-1.02,1.09-1.02,1.84v9.96c0,.79,.43,1.52,1.13,1.9l3.15,1.7v2.53l-3.26,2.02c-.63,.39-1.02,1.09-1.02,1.84v9.96c0,.79,.44,1.52,1.13,1.9l2.24,1.21v3.29l-1.53,.94c-.64,.39-1.03,1.09-1.03,1.84v9.98c0,.8,.44,1.53,1.14,1.9l3.14,1.69v2.52l-3.26,2.02c-.63,.39-1.02,1.09-1.02,1.84v9.98c0,.8,.44,1.53,1.14,1.91l.59,.31v6.75c0,.77,.41,1.48,1.08,1.87l5.4,3.11-5.4,3.12c-.67,.39-1.08,1.1-1.08,1.87v8.98l-1.53,.94c-.64,.39-1.03,1.09-1.03,1.84v9.98c0,.79,.43,1.52,1.13,1.9l3.15,1.7v2.53l-3.26,2.01c-.64,.39-1.02,1.09-1.02,1.84v9.96c0,.79,.44,1.52,1.14,1.9l14.29,7.69c.32,.17,.67,.26,1.02,.26,.39,0,.79-.11,1.14-.32l11.17-6.91,1.4,.8c-.49,.41-.79,1.02-.79,1.66v9.98c0,.81,.45,1.54,1.16,1.92l14.53,7.55c.31,.16,.66,.24,1,.24,.41,0,.81-.11,1.16-.34l39.23-25.15c.62-.4,1-1.08,1-1.82h0Zm-40.44,23.43v-7.73l5.98-3.84,9.2-5.31s.06-.05,.09-.07c.05-.04,.1-.08,.15-.13,.04-.05,.07-.09,.1-.15,.03-.05,.06-.11,.08-.16,.02-.06,.03-.12,.04-.19,0-.04,.02-.07,.02-.12v-.07l6.79-4.35,.44,.25h0s.03,0,.04,.01c.13,.06,.26,.11,.42,.11h.01c.15,0,.29-.05,.42-.11,.02,0,.03,0,.05-.02h0l13.52-7.81v5.73l-37.34,23.94ZM33.22,5.53l16.79,9.69s0,0,0,0h0s7.76,4.49,7.76,4.49h0l.02,.02,13.81,7.97h0s1.16,.67,1.16,.67l-11.93,6.89L21.3,12.42l11.93-6.89Zm25.05,5.49l5.54,3.2-5.57,3.57-5.85-3.38,5.89-3.39Zm16.87-1.82l12.59,6.55-15.65,10.04-12-6.93,6.06-3.88,9-5.78Zm13.52,15.91l-1.52,.98-11.52,7.38v-5.1s-.01-.04-.01-.06c0-.04-.01-.08-.02-.12-.01-.04-.02-.08-.04-.12-.01-.04-.03-.08-.05-.12,0-.02,0-.04-.02-.05-.01-.02-.03-.03-.04-.04-.02-.04-.05-.07-.07-.1-.03-.04-.06-.06-.09-.09-.03-.03-.06-.05-.1-.08-.02-.01-.02-.03-.04-.04l-1.23-.71,14.75-9.45v7.73s0,0,0,0Zm10.07,57.76l-8.15,4.71s0,0,0,0l-3.77,2.17v-7.79l11.93-6.89v7.79Zm-1.45,28.85s0,0,0,0l-13.1,8.4-8.18,5.24h0s-2.45,1.56-2.45,1.56c0,0,0,0,0,0l-11.03,7.08v-7.72l5.99-3.85s0,0,0,0l9.19-5.3s.05-.05,.08-.08c.05-.04,.11-.08,.15-.13,.04-.05,.07-.09,.1-.15,.03-.05,.06-.11,.08-.16,.02-.06,.03-.12,.04-.19,0-.04,.02-.07,.02-.12v-.08l6.78-4.35,.43,.25h0s.03,0,.04,.01c.13,.06,.26,.11,.42,.11h.01c.15,0,.29-.05,.42-.11,.01,0,.04,0,.05-.02h0l13.52-7.81v5.73l-2.57,1.65Zm1.49,11.34l-8.16,4.71h0l-3.76,2.18v-7.8l11.93-6.89v7.8Zm-66.68,29.01l1.34-.83,6.48,3.74-5.33,3.3-2.5,1.54v-7.74h0Zm9.68,3.98l3.79,2.19c-.06,.06-.1,.14-.14,.21,0,.01-.02,.01-.03,.02,0,.01,0,.02,0,.04-.02,.05-.03,.1-.05,.16,0,.03-.01,.05-.02,.08,0,.04-.02,.09-.02,.13,0,.01,0,.02,0,.04v4.97l-8.36-4.83,4.84-3Zm-18.87-56.22v-2.75l8.62,4.64s.03,0,.04,.01c.12,.06,.26,.1,.4,.1,0,0,0,0,0,0h0c.16,0,.3-.05,.43-.12,.02-.01,.04-.01,.05-.02,0,0,0,0,.01,0l3.46-2.14,14.86,8.57v1.73s.02,.08,.02,.11c0,.07,.02,.13,.04,.19,.02,.06,.05,.11,.08,.16,.03,.06,.06,.11,.1,.15s.08,.08,.13,.12c.05,.04,.1,.07,.15,.1,.06,.03,.11,.05,.17,.06,.04,.01,.07,.04,.11,.04l5.16,.79,5.73,3.3v7.79l-12.18-7.03s0,0,0,0l-5.57-3.22h0l-8.33-4.81-13.47-7.78Zm-1.72-18.95v-3.44l9.51,5.13s0,0,0,0h0s.02,0,.04,0c.12,.06,.26,.1,.41,.1,0,0,0,0,0,0h0c.16,0,.3-.05,.43-.12,.02-.01,.04-.01,.05-.02,0,0,.01,0,.02,0l2.86-1.77,10.78,6.23v2.09s.02,.08,.03,.13c0,.07,.02,.13,.04,.19,.02,.06,.05,.1,.08,.15,.03,.06,.06,.11,.11,.16,.04,.05,.09,.08,.15,.12,.04,.03,.07,.07,.11,.09l14.53,7.55s.02,0,.04,0c.12,.06,.25,.09,.39,.09v6.12l-7.85-4.53s0,0,0,0h-.01s0-.01,0-.01l-.55-.32h0s-9.26-5.35-9.26-5.35h0l-8.33-4.81-13.54-7.81Zm.9-20.15v-2.74l8.61,4.64s0,0,0,0h0s.02,0,.04,0c.12,.06,.26,.1,.41,.1,0,0,0,0,0,0h0c.16,0,.3-.05,.43-.12,.02-.01,.04-.01,.06-.02,0,0,0,0,.01,0l3.46-2.15,10.18,5.88v2.83s.02,.08,.03,.13c0,.07,.02,.13,.04,.19,.02,.06,.05,.1,.08,.15,.03,.06,.06,.11,.11,.16,.04,.05,.09,.08,.15,.12,.04,.03,.07,.07,.11,.09l14.53,7.55s.02,0,.04,0c.12,.06,.25,.09,.39,.09,0,0,0,0,0,0h0c.16,0,.3-.05,.43-.12,.02-.01,.04-.01,.06-.02,0,0,.01,0,.02,0l.38-.25v6.32l-12.18-7.03-5.58-3.22h0l-8.32-4.81s0,0,0,0l-13.48-7.79Zm62.65,61.29l.23,.13v7.79l-1.74-1.01s0,0,0,0l-4.88-2.81,6.39-4.1Zm-8.19,5.24l4.39,2.53-5.3,3.4v-5.1s-.01-.04-.01-.06c0-.04-.01-.08-.02-.12,0-.02,0-.04,0-.05l.95-.6Zm7.56,35.31v7.75l-6.37-3.67,6.37-4.08Zm14.93-17.55v5.73l-2.34,1.49h0l-13.09,8.4-8.18,5.24-8.74,5.61s0,0,0,0l-4.58,2.93h0l-.38,.24v-7.72l5.99-3.85s0,0,0,0l7.46-4.31s.06-.05,.08-.07c.06-.04,.11-.08,.15-.14,.04-.04,.07-.09,.09-.14,.03-.06,.06-.11,.08-.17,.02-.06,.03-.12,.04-.19,0-.02,.01-.05,.01-.07l9.34-5.98,.49,.28s.03,0,.05,.01c.13,.06,.27,.11,.42,.11h.01c.15,0,.29-.05,.42-.11,.02,0,.03,0,.05-.02l12.65-7.3Zm-37.23,11.52l11.93-6.89v7.79l-7.03,4.06-.04,.02h-.02s-4.84,2.81-4.84,2.81v-7.79Zm-1.18-22.37l-11.44-5.95s0,0,0,0l-1.18-.61v-7.85l12.63,6.57v7.84Zm1.18,2.45c.08-.02,.15-.05,.22-.08,.02-.01,.04,0,.06-.02l1.35-.87h.02s10.28-5.94,10.28-5.94v7.79l-5.56,3.22h0s-2.59,1.49-2.59,1.49c0,0,0,0,0,0l-3.76,2.18v-7.77Zm6.82,6.01l.64,.37-.66,.42-.67-.39,.7-.4Zm2.48,1.44l11.99,6.92-7.48,4.79v-7.76s-.01-.04-.01-.06c0-.04-.01-.08-.02-.12-.01-.04-.02-.08-.04-.12-.01-.04-.03-.08-.05-.12,0-.02,0-.04-.02-.05-.01-.02-.03-.03-.04-.04-.02-.04-.05-.07-.07-.1-.03-.04-.06-.06-.09-.09-.03-.03-.06-.06-.1-.08-.02-.01-.02-.03-.04-.04l-4.7-2.72,.67-.42Zm13.85,5.81l-13.4-7.74-1.04-.6,4.63-2.68s.06-.05,.09-.08c.05-.04,.1-.08,.15-.13,.04-.05,.07-.09,.1-.15,.03-.05,.06-.1,.07-.16,.02-.06,.03-.13,.04-.19,0-.04,.02-.07,.02-.11v-1.36l9.34,5.4v7.79Zm-23.44-25.21l-12.59-6.55,.9-.58,12,6.93-.31,.21Zm-28.61-33.25l1.34-.83,6.48,3.74-5.33,3.31s0,0,0,0l-2.49,1.54v-7.75s0,0,0,0Zm9.68,3.98l8.19,4.73v5.8l-13.04-7.53,4.85-3.01Zm10.08,12.17v-6.34l8.53,4.93h0s.03,0,.05,.02c.13,.06,.27,.11,.42,.11h.01c.15,0,.29-.05,.42-.11,.02,0,.03,0,.05-.02l5.16-2.98,2.38,.36v8.06l-2.42-.36-10.05-1.52h-.03s0,0,0,0l-4.5-.69v-1.46s0,0,0,0Zm-9.24-32.34l3.74,2.16-1.46,.94s-.01,.03-.03,.04c-.11,.08-.2,.18-.27,.29,0,.01-.02,.01-.03,.02,0,.01,0,.02,0,.04-.02,.05-.04,.11-.05,.16,0,.03-.02,.05-.02,.08,0,.04-.02,.08-.02,.13,0,.01,0,.02,0,.04v5.69l-8.96-5.18,7.11-4.41Zm18.37-18.41l11.93-6.89v7.8l-7.03,4.06-.04,.02h-.02s-4.84,2.81-4.84,2.81v-7.8Zm6.82-13.91l.64,.37-.67,.43-.67-.39,.7-.41Zm2.48,1.43l11.99,6.93-7.48,4.8v-7.77s-.01-.04-.01-.06c0-.04-.01-.08-.02-.12-.01-.04-.02-.08-.04-.12-.01-.04-.03-.08-.05-.12,0-.02,0-.04-.02-.05-.01-.02-.03-.03-.04-.04-.02-.04-.05-.07-.07-.1-.03-.04-.06-.06-.09-.09-.03-.03-.06-.05-.1-.08-.02-.01-.03-.03-.04-.04l-4.7-2.71,.67-.43Zm-23.94,21.43v-5.04l12.64,6.56v7.84l-12.64-6.57v-2.8Zm16.36,10.26l4.15-2.67h.02s7.76-4.49,7.76-4.49v7.79l-8.76,5.06-.04,.02h0s-3.13,1.81-3.13,1.81v-7.53Zm13.82-7.16l4.94,2.86-4.94,3.17v-6.02Zm8.64-6.07l11.93-6.89v7.79l-11.93,6.89v-7.79Zm-1.89,.04v7.75l-6.37-3.67,6.37-4.08Zm-11.34,27.22h0s1.79-1.04,1.79-1.04v7.79l-2.82,1.62-5.09,2.94-.09,.05h0s-3.93,2.28-3.93,2.28v-7.15l10.13-6.49Zm1.97,15.91l.62,.36-1.05,.61,.44-.97Zm-4.66-4.29l-.15-.02,.21-.12-.07,.15Zm-9.36-16.12l-12.59-6.54,.91-.58,11.99,6.92-.3,.2Zm-13.53,.87v-5.77l12.64,6.56v7.84l-12.64-6.57v-2.06Zm17.14,26.26l-.9,.52-1.53-.88,2.43,.37Zm3.23,8.11h0l-.04,.02h0s-3.13,1.81-3.13,1.81v-7.79l2.96-1.7,3.18,.48c.05,0,.09,.01,.14,.01h0c.16,0,.31-.06,.45-.13,.04-.02,.07-.04,.1-.07,0,0,.01,0,.02-.01,.02-.01,.04-.02,.06-.04,.08-.08,.16-.17,.21-.28,0-.01,.02-.02,.02-.03l1.45-3.19,3.34-1.93v7.8l-8.75,5.05Zm10.64-12.85l4.94,2.85-4.94,3.17v-6.02Zm6.74,1.71l-7.21-4.16h0s-2.19-1.27-2.19-1.27l2.8-6.17,6.61,3.81v7.79Zm-7.9-13.33l-3.59,7.9-1.86,4.09v-5.4l1.37-3.01,3.03-1.74s.06-.05,.09-.07c.06-.04,.1-.08,.15-.13,.04-.05,.07-.09,.1-.15,.03-.05,.06-.11,.08-.16,.02-.06,.03-.12,.04-.19,0-.04,.02-.07,.02-.12v-5.14l1.87-4.11,1.95,1.12-3.24,7.13Zm4.92-8.33l-3.16-1.82,6.14-3.93v7.47l-2.98-1.72Zm15.79-16.22l-13.1,8.4-8.18,5.24s0,0,0,0l-1.63,1.05h0l-3.09,1.98-10.04,6.43v-7.72s5.99-3.84,5.99-3.84l9.19-5.32s.06-.05,.09-.08c.05-.04,.1-.08,.15-.13,.04-.05,.07-.09,.1-.15,.03-.05,.06-.1,.08-.16,.02-.06,.03-.13,.04-.19,0-.04,.02-.08,.02-.12v-.07l6.79-4.35,.44,.25h0s.03,0,.04,.01c.13,.06,.26,.11,.42,.11h.01c.15,0,.29-.05,.42-.11,.02,0,.03,0,.05-.02h0l13.52-7.81v5.73l-1.29,.83Zm1.3-26.5v5.73l-2.35,1.5-13.09,8.39-8.18,5.24-8.74,5.61-4.59,2.95-.38,.24v-7.73l5.99-3.84s0,0,0,0l7.46-4.31s.06-.05,.08-.07c.06-.04,.11-.08,.15-.14,.04-.04,.07-.09,.09-.14,.03-.06,.06-.11,.08-.17,.02-.06,.03-.12,.04-.19,0-.03,.01-.05,.01-.07l9.34-5.99,.49,.28s.03,0,.05,.01c.13,.06,.26,.11,.42,.11h.01c.15,0,.29-.05,.42-.11,.02,0,.03,0,.05-.01l12.65-7.31Zm-14.07,4.86l-13.4-7.74-1.04-.6,4.63-2.68s.06-.05,.09-.08c.05-.04,.1-.08,.15-.13,.04-.05,.07-.09,.1-.15,.03-.05,.06-.1,.07-.16,.02-.06,.03-.13,.04-.19,0-.04,.02-.07,.02-.11v-1.35l9.34,5.39v7.8Zm-11.23-14.97v2.59l-5.57,3.22-2.58,1.5h0l-3.77,2.17v-7.79l11.93-6.89v5.2Zm-22.4,6.71l5.86,3.38-5.86,3.76v-7.14Zm-14.52-.05v-7.04l12.63,6.56v7.85l-12.63-6.57v-.8Zm22.23,4.5l1.35,.77s0,0,0,0c.01,0,.03,0,.04,.01,.13,.06,.26,.11,.42,.11h0c.15,0,.29-.05,.42-.11,.01,0,.03,0,.04-.01,0,0,0,0,0,0l4.71-2.71,2.11,1.22h0l.02,.02,4.6,2.65-11.93,6.89-8.22-4.75,6.4-4.1Zm-13.53,12.24s-.07,.09-.1,.14c0,.01-.02,.01-.02,.02,0,.01,0,.02,0,.04-.02,.04-.03,.08-.04,.12-.02,.05-.03,.09-.04,.15,0,.04-.01,.07-.01,.1,0,.01,0,.02,0,.04v4.96l-8.36-4.83,4.84-3,3.8,2.19s-.04,.05-.06,.08h0Zm-10.92-.05s0,0,0,0l-2.49,1.55v-7.75s1.34-.83,1.34-.83l6.48,3.74-5.32,3.3Zm.51,11.88l6.47,3.74-7.59,4.7-1.9,1.17v-7.75l3.01-1.86Zm.82,39.08l6.48,3.74-9.49,5.88v-7.75l3.01-1.87Zm8.34,4.81l3.74,2.16-1.45,.93s-.03,.04-.05,.05c-.02,.02-.05,.04-.07,.05-.04,.03-.06,.07-.09,.1-.03,.04-.06,.08-.09,.12,0,.02-.02,.03-.03,.04,0,.01,0,.02,0,.04-.02,.04-.03,.08-.04,.12-.01,.05-.03,.09-.04,.15,0,.04-.01,.07-.01,.1,0,.01,0,.02,0,.04v8.24l-11.1-6.41,9.25-5.73Zm7.07,27.29l5.87,3.39-5.87,3.76v-7.15Zm-14.52-.04v-7.04l12.63,6.56v7.85l-12.63-6.57v-.8Zm22.23,4.5l1.35,.78h0s.03,0,.05,.02c.13,.06,.26,.11,.42,.11h0c.15,0,.29-.05,.42-.11,.02,0,.03,0,.05-.02h0l4.71-2.72,2.11,1.22,4.63,2.68-11.93,6.89-8.22-4.75,6.4-4.1Zm-11.87,19.43v-5.05l12.64,6.57v7.84l-12.64-6.56v-2.8Zm19.53,15.95l-3.17,1.83v-7.53l4.15-2.66h.02s7.76-4.49,7.76-4.49v7.79l-8.75,5.05Zm10.64-12.84l4.94,2.86-4.94,3.17v-6.02Zm8.64-6.08l11.93-6.89v7.8l-11.93,6.89v-7.8Zm12.79-21.36v1.83l-11.93,6.89v-7.79l11.93-6.89v5.96Zm-12.87-.7l-9.52-5.51,6.39-4.1,2.66,1.54s0,0,0,0c.01,0,.03,0,.05,.01,.13,.06,.27,.11,.42,.11h.01c.15,0,.29-.05,.42-.11,.02,0,.03,0,.05-.02h0l4.71-2.72,6.75,3.9-11.93,6.89Zm11.79-26.76l.13-.08h0s-.13,.08-.13,.08Zm1.04-13.67v2.77l-11.93,6.89v-7.79l11.93-6.89v5.01Zm-12.87,.24l-6.77-3.91,2.8-6.18,3.49,2.01s.03,0,.05,.02c.13,.06,.26,.11,.42,.11h.01c.15,0,.29-.05,.42-.11,.02,0,.04,0,.05-.01l4.71-2.71,6.74,3.89-11.93,6.89Zm12.91-58.82v1.82l-11.93,6.89v-7.79l11.93-6.89v5.97Zm-12.87-.71l-9.54-5.5,11.31-7.25,10.16,5.86-11.93,6.89ZM20.36,14.06l39.56,22.84v7.79l-.43-.25h0l-8.18-4.72-13.83-7.99-8.94-5.16s0,0,0,0l-8.16-4.72v-7.79Zm7.69,14.41l7.15,4.13s-.06,.09-.09,.14c-.02,.03-.06,.06-.08,.09,0,.01,0,.02,0,.04-.02,.05-.04,.11-.05,.16,0,.03-.01,.05-.02,.07,0,.05-.02,.09-.02,.13,0,.01,0,.02,0,.04v6.96l-13.62-7.86,6.74-3.9Zm6.88,13.94v.83s.02,.08,.03,.13c0,.07,.02,.13,.04,.19,.02,.06,.05,.1,.08,.15,.03,.06,.06,.11,.11,.16,.04,.05,.09,.08,.15,.12,.04,.03,.07,.07,.11,.09l14.52,7.55s.02,0,.04,0c.12,.06,.25,.09,.39,.09,0,0,0,0,0,0h0c.16,0,.3-.05,.43-.12,0,0,.02,0,.02,0l9.07,5.23v7.8l-12.08-6.98h0l-5.61-3.23-8.33-4.81-13.53-7.81v-7.8l14.57,8.41Zm-15.32,1.14l11.97,6.91-.46,.29-12.37-6.66,.86-.53Zm-1.81,2.17l12.4,6.68v7.83l-8.62-4.64-3.78-2.04v-7.82Zm3.47,16.73l11.97,6.91-2.13,1.32-12.37-6.66,2.53-1.57Zm-3.47,3.21l12.4,6.68v7.83l-9.51-5.13h0s-2.88-1.56-2.88-1.56v-7.82h0Zm2.63,16.97l11.96,6.91-.46,.28-12.37-6.66,.87-.53Zm-1.81,2.18l12.4,6.68v7.82l-8.62-4.64h0l-3.78-2.03v-7.83h0Zm3.47,16.74l11.97,6.9-2.13,1.32-12.37-6.66,2.53-1.56Zm-3.47,3.2l12.4,6.68v7.82l-11.17-6.02s0,0,0,0l-1.23-.66v-7.83h0Zm1.73,10.9l11.17,6.02s.03,0,.04,.01c.12,.06,.26,.1,.4,.1,0,0,0,0,0,0h0c.16,0,.3-.05,.43-.12,.02-.01,.04-.01,.05-.02,0,0,0,0,.01,0l.73-.45,13.11,7.57c.08,.12,.19,.22,.32,.29l1.67,.86,11.62,6.72v7.79l-.42-.25s0,0,0,0l-8.19-4.73h0l-13.83-7.99-8.95-5.17-8.16-4.71v-5.92s0,0,0,0Zm7.69,12.54l7.16,4.13s-.04,.06-.06,.08c-.04,.05-.07,.09-.1,.14,0,.01-.02,.01-.02,.02,0,.01,0,.02,0,.04-.02,.04-.03,.08-.04,.12-.02,.05-.03,.1-.04,.15,0,.04-.01,.07-.01,.1,0,.01,0,.02,0,.04v6.96l-13.62-7.86,6.75-3.91Zm6.88,13.94v.83s.02,.08,.03,.13c0,.07,.02,.13,.04,.19,.02,.06,.05,.1,.08,.15,.03,.06,.06,.11,.11,.16,.04,.05,.09,.08,.15,.12,.04,.03,.07,.07,.11,.09l14.52,7.55s.02,0,.04,0c.12,.06,.25,.09,.39,.09,0,0,0,0,0,0h0c.16,0,.3-.05,.43-.12,0,0,.02,0,.02,0l9.07,5.23v7.79l-12.09-6.98-5.61-3.23-8.33-4.81-13.53-7.82v-7.79l14.57,8.4Zm-15.32,1.13l11.97,6.91-.47,.29-12.37-6.67,.86-.53Zm-1.81,2.17l12.4,6.69v7.82l-8.62-4.63s0,0,0,0l-3.77-2.03v-7.83h0Zm3.47,16.74l11.97,6.91-2.13,1.31-12.37-6.66,2.53-1.57Zm-3.47,3.21l12.4,6.68v7.82l-12.4-6.68v-7.82Zm14.29,6.64l3.01-1.86,6.47,3.74-9.48,5.87v-7.75Zm11.79,1.03s0,0-.01,0l-8.32-4.8s0,0,0,0l-13.48-7.79v-2.74l8.62,4.63s.03,0,.04,.01c.12,.06,.26,.1,.4,.1,0,0,0,0,0,0h0c.16,0,.3-.05,.43-.12,.02-.01,.04-.01,.05-.02,0,0,0,0,.01,0l3.46-2.14,10.18,5.88v2.83s.02,.09,.03,.13c0,.07,.02,.13,.04,.19,.02,.06,.05,.11,.09,.16,.03,.05,.06,.1,.1,.15,.05,.05,.1,.08,.15,.12,.04,.03,.06,.06,.11,.08l14.53,7.54s.02,0,.03,0c.12,.06,.25,.09,.39,.09,0,0,0,0,0,0h0c.16,0,.3-.05,.43-.12,.02-.01,.04-.01,.06-.02,0,0,.01,0,.02,0l.38-.25v6.32l-12.17-7.03h0s-5.57-3.22-5.57-3.22Zm5.13,5.14l12,6.93-.31,.2-12.59-6.55,.91-.58Zm-1.85,2.22l12.64,6.57v7.84l-12.64-6.57v-7.85Z"/>
  <g>
    <line x1="134.87" y1="190.36" x2="134.87" y2="12.29" style="fill: none; stroke: #000; stroke-miterlimit: 10; stroke-width: 2px;"/>
    <polygon points="143.05 18.92 141.58 20.28 134.87 13.06 128.16 20.28 126.69 18.92 134.87 10.12 143.05 18.92"/>
  </g>
</svg>